<svg height="1000" width="714.286" xmlns="http://www.w3.org/2000/svg"><path d="M607.104 535.744v-357.12h-249.984v634.446q66.402 -35.154 118.854 -76.446 131.13 -102.672 131.13 -200.88zm107.136 -428.544v428.544q0 47.988 -18.693 95.139t-46.314 83.7 -65.844 71.145 -70.587 57.474 -67.518 43.245 -49.941 27.621 -23.715 11.16q-6.696 3.348 -14.508 3.348t-14.508 -3.348q-8.928 -3.906 -23.715 -11.16t-49.941 -27.621 -67.518 -43.245 -70.587 -57.474 -65.844 -71.145 -46.314 -83.7 -18.693 -95.139v-428.544q0 -14.508 10.602 -25.11t25.11 -10.602h642.816q14.508 0 25.11 10.602t10.602 25.11z"/></svg>